<svg xmlns="http://www.w3.org/2000/svg" xmlns:xlink="http://www.w3.org/1999/xlink" viewBox="0 0 1531.33 1808.15"><defs><style>.cls-1{stroke:#9f009d;stroke-width:3px;fill:url(#radial-gradient);}.cls-1,.cls-4{stroke-miterlimit:10;}.cls-2{fill:#bc00c8;}.cls-3{fill:#fff;}.cls-4{fill:none;stroke:#fff;stroke-width:108.11px;}</style><radialGradient id="radial-gradient" cx="966.17" cy="955.42" r="836.24" gradientUnits="userSpaceOnUse"><stop offset="0" stop-color="#fff"/><stop offset="0" stop-color="#d200e6"/></radialGradient></defs><title>Plusing_logo</title><g id="Layer_2" data-name="Layer 2"><path class="cls-1" d="M1730.33,391.89c0-187.25-151.79-339-339-339-107,0-202.5,49.63-264.64,127.12-211.23,40.68-442,191.12-618,424.66-175.57,233-256.58,495.68-237.93,709.69A337.52,337.52,0,0,0,202,1519c0,187.25,151.8,339,339,339,110.83,0,209.23-53.18,271.1-135.42,82.71-16.07,168.4-49,252.6-97,130.54-74.56,257.51-185.68,364.3-327.4q13.54-18,26.34-36.21C1612.49,1038.46,1684.5,792,1667,589.18A337.52,337.52,0,0,0,1730.33,391.89Z" transform="translate(-200.5 -51.35)"/></g><g id="Layer_4" data-name="Layer 4"><path class="cls-2" d="M1625.46,923,1283,640.94,883.21,1179.8,939,1248.51l-111.56,117L1089,1614.88a1076.33,1076.33,0,0,0,94.87-64.54l.88,1.08c100.09-70.72,188.64-169.94,260.07-271.58l1.22-1.68q13.14-18.35,25.52-36.9l-.31-.29a1516.73,1516.73,0,0,0,92.7-161.46C1571.26,1064.63,1624.66,938.16,1625.46,923Z" transform="translate(-200.5 -51.35)"/></g><g id="Layer_3" data-name="Layer 3"><polygon class="cls-3" points="1137.14 631.12 978.35 502.77 659.27 922.49 685.5 1126.36 688.58 1128.85 1010.02 706.04 1162.18 829.04 1162.55 828.55 1137.14 631.12"/><polygon class="cls-3" points="563.89 1264.04 725.12 1389.11 1036.03 962.91 1005.87 759.62 1002.74 757.2 689.54 1186.52 535.03 1066.67 534.68 1067.15 563.89 1264.04"/><path class="cls-4" d="M818.53,1539.24C551,1329.56,489.86,948.44,681.86,688s564.51-301.62,832-92" transform="translate(-200.5 -51.35)"/></g></svg>